<svg xmlns="http://www.w3.org/2000/svg" viewBox="0 0 512 512" width="100%" height="100%">
  <defs>
    <linearGradient id="gradient" x1="0%" y1="0%" x2="100%" y2="100%">
      <stop offset="0%" stop-color="#3a7bd5" />
      <stop offset="100%" stop-color="#00d2ff" />
    </linearGradient>
    <filter id="shadow" x="-20%" y="-20%" width="140%" height="140%">
      <feDropShadow dx="0" dy="4" stdDeviation="10" flood-color="rgba(0,0,0,0.2)" />
    </filter>
  </defs>
  
  <!-- Círculo de fundo -->
  <circle cx="256" cy="256" r="230" fill="white" filter="url(#shadow)" />
  
  <!-- Símbolo de cifrão estilizado -->
  <path d="M256 120c-30 0-60 15-60 50 0 30 25 40 60 50 35 10 60 20 60 50 0 35-30 50-60 50-40 0-60-25-60-50" 
        stroke="url(#gradient)" stroke-width="25" stroke-linecap="round" fill="none" />
  
  <!-- Linha vertical do cifrão -->
  <line x1="256" y1="100" x2="256" y2="340" stroke="url(#gradient)" stroke-width="25" stroke-linecap="round" />
  
  <!-- Gráfico de crescimento -->
  <polyline points="150,280 190,240 230,260 270,220 310,200 350,160" 
            stroke="url(#gradient)" stroke-width="10" stroke-linecap="round" stroke-linejoin="round" fill="none" />
  
  <!-- Pontos do gráfico -->
  <circle cx="150" cy="280" r="8" fill="url(#gradient)" />
  <circle cx="190" cy="240" r="8" fill="url(#gradient)" />
  <circle cx="230" cy="260" r="8" fill="url(#gradient)" />
  <circle cx="270" cy="220" r="8" fill="url(#gradient)" />
  <circle cx="310" cy="200" r="8" fill="url(#gradient)" />
  <circle cx="350" cy="160" r="8" fill="url(#gradient)" />
  
  <!-- Círculo decorativo -->
  <circle cx="256" cy="256" r="200" stroke="url(#gradient)" stroke-width="15" stroke-dasharray="15,15" fill="none" />
</svg>